<?xml version="1.0" encoding="utf-8"?>
<!-- Generator: Adobe Illustrator 13.0.1, SVG Export Plug-In . SVG Version: 6.00 Build 14948)  -->
<!DOCTYPE svg PUBLIC "-//W3C//DTD SVG 1.1//EN" "http://www.w3.org/Graphics/SVG/1.1/DTD/svg11.dtd" [
	<!ENTITY st0 "fill:#FFFFFF;">
	<!ENTITY st1 "fill:#00563F;">
]>
<svg version="1.1" id="Capa_1" xmlns="http://www.w3.org/2000/svg" xmlns:xlink="http://www.w3.org/1999/xlink" x="0px" y="0px"
	 width="24px" height="24px" viewBox="0 0 24 24" style="enable-background:new 0 0 24 24;" xml:space="preserve">
<rect x="-0.5" y="-0.5" style="&st1;" width="24" height="24"/>
<g>
	<g id="XMLID_2_">
		<g>
			<path style="&st0;" d="M11.7,23.5H8c-0.2-0.6-0.6-2.9-0.9-5.3c-0.3-2.8-0.9-3.6-2.1-3.6H4.6v8.9H1V1.6c1.1-0.3,2.5-0.4,3.8-0.4
				c1.9,0,3.6,0.3,4.8,1.6c1.1,1.2,1.4,2.7,1.4,4.6c0,2.4-0.9,4.5-2.8,5.6v0.1c1.2,0.6,1.8,2,2.2,4.4C10.9,19.9,11.4,22.7,11.7,23.5
				z M7.6,7.8c0-1.9-0.6-3.2-2.2-3.3c-0.3,0-0.6,0-0.8,0.1v6.6h0.6C6.7,11.3,7.6,9.8,7.6,7.8z"/>
		</g>
		<g>
		</g>
	</g>
</g>
<g>
	<g id="XMLID_1_">
		<g>
			<path style="&st0;" d="M20,13.1c0,1.7,0.6,2.7,1.7,2.7c0.3,0,0.6-0.1,0.8-0.2l0.2,2c-0.2,0.1-0.8,0.3-1.4,0.3
				c-2.1,0-3.5-1.6-3.5-4.7c0-2.9,1.5-4.9,3.8-4.9c0.5,0,1,0.1,1.2,0.2l-0.3,2c-0.2-0.1-0.5-0.2-0.8-0.2C20.6,10.3,20,11.5,20,13.1z
				"/>
			<path style="&st0;" d="M14.8,12.2c0-1.2-0.3-2.1-0.9-2.1c-0.7,0-1,1.2-1,2.1H14.8z M14,8.3c1.8,0,2.8,1.6,2.8,4.4
				c0,0.7,0,1-0.1,1.3h-3.9c0,1.4,0.8,2,1.8,2c0.6,0,1.2-0.2,1.6-0.3l0.3,1.8c-0.6,0.2-1.4,0.4-2.3,0.4c-2.3,0-3.5-1.7-3.5-4.6
				C10.7,10.1,12.1,8.3,14,8.3z"/>
		</g>
		<g>
		</g>
	</g>
</g>
</svg>
