<?xml version="1.0" encoding="utf-8"?>
<!-- Generator: Adobe Illustrator 13.0.1, SVG Export Plug-In . SVG Version: 6.00 Build 14948)  -->
<!DOCTYPE svg PUBLIC "-//W3C//DTD SVG 1.1//EN" "http://www.w3.org/Graphics/SVG/1.1/DTD/svg11.dtd" [
	<!ENTITY st0 "fill:#FFFFFF;">
	<!ENTITY st1 "fill:#00563F;">
]>
<svg version="1.1" id="Capa_1" xmlns="http://www.w3.org/2000/svg" xmlns:xlink="http://www.w3.org/1999/xlink" x="0px" y="0px"
	 width="24px" height="24px" viewBox="0 0 24 24" style="enable-background:new 0 0 24 24;" xml:space="preserve">
<rect x="-0.5" y="-0.5" style="&st1;" width="24" height="24"/>
<g>
	<g id="XMLID_2_">
		<g>
			<path style="&st0;" d="M20.8,12.8c0,0.9,0.4,1.1,0.9,1.1c0.2,0,0.4,0,0.6,0l0,1.6c-0.3,0.1-0.8,0.1-1.4,0.1
				c-0.6,0-1.2-0.1-1.6-0.5c-0.5-0.4-0.7-1-0.7-2.2V9.4h-1V7.9h1V6.4l2.2-0.5v2h1.6v1.4h-1.6V12.8z"/>
			<path style="&st0;" d="M14.4,7.8c1.6,0,2.2,1.1,2.2,2.8v4.9h-2.2v-4.7c0-0.6-0.2-1.2-0.8-1.2c-0.4,0-0.7,0.2-0.8,0.7
				c-0.1,0.2-0.1,0.4-0.1,0.7v4.6h-2.2v-5.3c0-0.8-0.1-1.6-0.1-2.3h1.9l0.1,0.9h0C12.8,8.2,13.5,7.8,14.4,7.8z"/>
		</g>
		<g>
		</g>
	</g>
</g>
<g>
	<g id="XMLID_1_">
		<g>
			<path style="&st0;" d="M15.2,4l-0.8,3c-0.7-0.3-1.8-0.6-3.4-0.6c-3.5,0-5.5,2.2-5.5,5.1c0,3.2,2.4,5.1,5.5,5.1
				c1.6,0,2.7-0.3,3.6-0.6l0.6,3c-1,0.4-2.8,0.8-5.1,0.8c-5.6,0-9.2-3.2-9.2-8c0-4.7,3.7-8.4,10-8.4C12.4,3.3,14.1,3.6,15.2,4z"/>
		</g>
		<g>
		</g>
	</g>
</g>
</svg>
