<?xml version="1.0" encoding="utf-8"?>
<!-- Generator: Adobe Illustrator 13.0.1, SVG Export Plug-In . SVG Version: 6.00 Build 14948)  -->
<!DOCTYPE svg PUBLIC "-//W3C//DTD SVG 1.1//EN" "http://www.w3.org/Graphics/SVG/1.1/DTD/svg11.dtd" [
	<!ENTITY st0 "fill:#FFFFFF;">
	<!ENTITY st1 "fill:#00563F;">
]>
<svg version="1.1" id="Capa_1" xmlns="http://www.w3.org/2000/svg" xmlns:xlink="http://www.w3.org/1999/xlink" x="0px" y="0px"
	 width="24px" height="24px" viewBox="0 0 24 24" style="enable-background:new 0 0 24 24;" xml:space="preserve">
<rect x="-0.5" y="-0.5" style="&st1;" width="24" height="24.2"/>
<g>
	<g id="XMLID_1_">
		<g>
			<path style="&st0;" d="M19.6,7.1v2.2h-2.3v5.3c0,1.4,0.6,1.7,1.2,1.7c0.3,0,0.5,0,0.8-0.1l0,2.4c-0.4,0.1-1.1,0.2-1.9,0.2
				c-0.9,0-1.7-0.2-2.3-0.7c-0.6-0.6-1-1.5-1-3.4V9.4h-1.4V7.1h1.4V5.1l3.2-1v3H19.6z"/>
			<path style="&st0;" d="M9,9.5c2.2,1.3,2.9,2.9,2.9,4.6c0,3-2.2,4.9-5.3,4.9c-1.3,0-2.5-0.3-3.1-0.6L4,15.7
				c0.6,0.4,1.8,0.6,2.7,0.6c1.5,0,2.2-0.8,2.2-1.8c0-1.2-0.7-1.8-2.1-2.6c-2.2-1.3-3-3-3-4.5c0-2.6,1.7-4.8,5.1-4.8
				c1.1,0,2.1,0.3,2.5,0.6l-0.5,2.7c-0.5-0.3-1.1-0.6-2-0.6c-1.3,0-2,0.8-2,1.7C6.8,7.9,7.3,8.4,9,9.5z"/>
		</g>
		<g>
		</g>
	</g>
</g>
</svg>
