<?xml version="1.0" encoding="utf-8"?>
<!-- Generator: Adobe Illustrator 13.0.1, SVG Export Plug-In . SVG Version: 6.00 Build 14948)  -->
<!DOCTYPE svg PUBLIC "-//W3C//DTD SVG 1.1//EN" "http://www.w3.org/Graphics/SVG/1.1/DTD/svg11.dtd" [
	<!ENTITY st0 "fill:#FFFFFF;">
	<!ENTITY st1 "fill:#00563F;">
]>
<svg version="1.1" id="Capa_1" xmlns="http://www.w3.org/2000/svg" xmlns:xlink="http://www.w3.org/1999/xlink" x="0px" y="0px"
	 width="24px" height="24px" viewBox="0 0 24 24" style="enable-background:new 0 0 24 24;" xml:space="preserve">
<rect x="-0.5" y="-0.5" style="&st1;" width="24" height="24.2"/>
<g>
	<g id="XMLID_1_">
		<g>
			<path style="&st0;" d="M20,12.4c0-1.8-0.4-2.7-1.2-2.7c-0.4,0-0.7,0.4-0.8,0.8c-0.1,0.2-0.1,0.4-0.1,0.7v2.5c0,0.3,0,0.6,0.1,0.8
				c0.2,0.6,0.5,0.7,0.8,0.7C19.7,15.1,20,13.8,20,12.4z M22.5,12.4c0,3.3-1.4,4.8-3,4.8c-0.8,0-1.3-0.5-1.5-0.9h0v4.4h-2.5v-10
				c0-1.1,0-2-0.1-2.9h2.2l0.1,1.1h0c0.4-0.8,1.1-1.2,2-1.2C21.6,7.5,22.5,9.8,22.5,12.4z"/>
			<path style="&st0;" d="M12.3,12.3l2.1,4.7h-2.7L11,15.3c-0.2-0.5-0.3-1-0.4-1.4h0c-0.1,0.5-0.3,1-0.4,1.4L9.6,17H7.1l2.1-4.6
				l-2-4.7h2.7l0.6,1.6c0.2,0.6,0.3,1.1,0.4,1.6h0c0.1-0.5,0.3-1,0.4-1.6l0.6-1.6h2.5L12.3,12.3z"/>
			<polygon style="&st0;" points="3.1,9.3 6,9.3 6,11.4 3.1,11.4 3.1,14.8 6.4,14.8 6.4,17 0.6,17 0.6,4.2 6.2,4.2 6.2,6.4 3.1,6.4 
							"/>
		</g>
		<g>
		</g>
	</g>
</g>
</svg>
