<?xml version="1.0" encoding="UTF-8" standalone="no"?>
<!DOCTYPE svg PUBLIC "-//W3C//DTD SVG 1.1//EN"
 "http://www.w3.org/Graphics/SVG/1.1/DTD/svg11.dtd">
<!-- Generated by graphviz version 2.28.0 (20110507.0327)
 -->
<!-- Title: G Pages: 1 -->
<svg width="524pt" height="258pt"
 viewBox="0.00 0.00 524.00 258.00" xmlns="http://www.w3.org/2000/svg" xmlns:xlink="http://www.w3.org/1999/xlink">
<g id="graph1" class="graph" transform="scale(1 1) rotate(0) translate(4 254)">
<title>G</title>
<polygon fill="white" stroke="white" points="-4,5 -4,-254 521,-254 521,5 -4,5"/>
<g id="graph2" class="cluster"><title>cluster_global</title>
<polyline fill="none" stroke="gray" points="258,-8 496,-8 "/>
<path fill="none" stroke="gray" d="M496,-8C502,-8 508,-14 508,-20"/>
<polyline fill="none" stroke="gray" points="508,-20 508,-230 "/>
<path fill="none" stroke="gray" d="M508,-230C508,-236 502,-242 496,-242"/>
<polyline fill="none" stroke="gray" points="496,-242 258,-242 "/>
<path fill="none" stroke="gray" d="M258,-242C252,-242 246,-236 246,-230"/>
<polyline fill="none" stroke="gray" points="246,-230 246,-20 "/>
<path fill="none" stroke="gray" d="M246,-20C246,-14 252,-8 258,-8"/>
<text text-anchor="middle" x="377" y="-229.2" font-family="Times New Roman,serif" font-size="11.00" fill="gray">global</text>
</g>
<!-- \\block_ejsapp_file_browser -->
<g id="node2" class="node"><title>\\block_ejsapp_file_browser</title>
<a xlink:href="block_ejsapp_file_browser.html" xlink:title="block_ejsapp_file_browser" target="_parent">
<polygon fill="none" stroke="black" points="469.5,-214 284.5,-214 284.5,-178 469.5,-178 469.5,-214"/>
<text text-anchor="middle" x="377" y="-193.2" font-family="Courier,monospace" font-size="11.00">block_ejsapp_file_browser</text>
</a>
</g>
<!-- \\block_base -->
<g id="node7" class="node"><title>\\block_base</title>
<ellipse fill="none" stroke="black" cx="91" cy="-196" rx="55.4913" ry="18"/>
<text text-anchor="middle" x="91" y="-192.3" font-family="Times New Roman,serif" font-size="14.00" fill="gray">\block_base</text>
</g>
<!-- \\block_ejsapp_file_browser&#45;&gt;\\block_base -->
<g id="edge3" class="edge"><title>\\block_ejsapp_file_browser&#45;&gt;\\block_base</title>
<path fill="none" stroke="black" d="M284.186,-196C242.56,-196 194.332,-196 156.602,-196"/>
<polygon fill="none" stroke="black" points="156.252,-192.5 146.252,-196 156.252,-199.5 156.252,-192.5"/>
</g>
<!-- \\block_ejsapp_file_browser_form -->
<g id="node3" class="node"><title>\\block_ejsapp_file_browser_form</title>
<a xlink:href="edit_form.html" xlink:title="block_ejsapp_file_browser_form" target="_parent">
<polygon fill="none" stroke="black" points="486.5,-160 267.5,-160 267.5,-124 486.5,-124 486.5,-160"/>
<text text-anchor="middle" x="377" y="-139.2" font-family="Courier,monospace" font-size="11.00">block_ejsapp_file_browser_form</text>
</a>
</g>
<!-- \\moodleform -->
<g id="node9" class="node"><title>\\moodleform</title>
<ellipse fill="none" stroke="black" cx="91" cy="-142" rx="57.6901" ry="18"/>
<text text-anchor="middle" x="91" y="-138.3" font-family="Times New Roman,serif" font-size="14.00" fill="gray">\moodleform</text>
</g>
<!-- \\block_ejsapp_file_browser_form&#45;&gt;\\moodleform -->
<g id="edge5" class="edge"><title>\\block_ejsapp_file_browser_form&#45;&gt;\\moodleform</title>
<path fill="none" stroke="black" d="M267.416,-142C230.961,-142 191.391,-142 159.076,-142"/>
<polygon fill="none" stroke="black" points="158.852,-138.5 148.852,-142 158.852,-145.5 158.852,-138.5"/>
</g>
<!-- \\block_ejsapp_file_browser_renderer -->
<g id="node4" class="node"><title>\\block_ejsapp_file_browser_renderer</title>
<a xlink:href="renderer.html" xlink:title="block_ejsapp_file_browser_renderer" target="_parent">
<polygon fill="none" stroke="black" points="500,-106 254,-106 254,-70 500,-70 500,-106"/>
<text text-anchor="middle" x="377" y="-85.2" font-family="Courier,monospace" font-size="11.00">block_ejsapp_file_browser_renderer</text>
</a>
</g>
<!-- \\plugin_renderer_base -->
<g id="node11" class="node"><title>\\plugin_renderer_base</title>
<ellipse fill="none" stroke="black" cx="91" cy="-88" rx="90.9839" ry="18"/>
<text text-anchor="middle" x="91" y="-84.3" font-family="Times New Roman,serif" font-size="14.00" fill="gray">\plugin_renderer_base</text>
</g>
<!-- \\block_ejsapp_file_browser_renderer&#45;&gt;\\plugin_renderer_base -->
<g id="edge7" class="edge"><title>\\block_ejsapp_file_browser_renderer&#45;&gt;\\plugin_renderer_base</title>
<path fill="none" stroke="black" d="M253.91,-88C233.427,-88 212.379,-88 192.518,-88"/>
<polygon fill="none" stroke="black" points="192.25,-84.5001 182.25,-88 192.25,-91.5001 192.25,-84.5001"/>
</g>
<!-- \\ejsapp_file_browser_tree -->
<g id="node5" class="node"><title>\\ejsapp_file_browser_tree</title>
<a xlink:href="renderer.html" xlink:title="ejsapp_file_browser_tree" target="_parent">
<polygon fill="none" stroke="black" points="466.5,-52 287.5,-52 287.5,-16 466.5,-16 466.5,-52"/>
<text text-anchor="middle" x="377" y="-31.2" font-family="Courier,monospace" font-size="11.00">ejsapp_file_browser_tree</text>
</a>
</g>
<!-- \\renderable -->
<g id="node13" class="node"><title>\\renderable</title>
<ellipse fill="none" stroke="black" cx="91" cy="-34" rx="53.0913" ry="18"/>
<text text-anchor="middle" x="91" y="-30.3" font-family="Times New Roman,serif" font-size="14.00" fill="gray">\\renderable</text>
</g>
<!-- \\ejsapp_file_browser_tree&#45;&gt;\\renderable -->
<g id="edge9" class="edge"><title>\\ejsapp_file_browser_tree&#45;&gt;\\renderable</title>
<path fill="none" stroke="black" stroke-dasharray="1,5" d="M287.309,-34C244.281,-34 193.615,-34 154.67,-34"/>
<polygon fill="none" stroke="black" points="154.525,-30.5001 144.525,-34 154.524,-37.5001 154.525,-30.5001"/>
</g>
</g>
</svg>
