<?xml version="1.0" encoding="UTF-8" standalone="no"?>
<!DOCTYPE svg PUBLIC "-//W3C//DTD SVG 1.1//EN"
 "http://www.w3.org/Graphics/SVG/1.1/DTD/svg11.dtd">
<!-- Generated by graphviz version 2.38.0 (20140413.2041)
 -->
<!-- Title: G Pages: 1 -->
<svg width="524pt" height="258pt"
 viewBox="0.00 0.00 523.98 258.00" xmlns="http://www.w3.org/2000/svg" xmlns:xlink="http://www.w3.org/1999/xlink">
<g id="graph0" class="graph" transform="scale(1 1) rotate(0) translate(4 254)">
<title>G</title>
<polygon fill="white" stroke="none" points="-4,4 -4,-254 519.984,-254 519.984,4 -4,4"/>
<g id="clust1" class="cluster"><title>cluster_Global</title>
<path fill="none" stroke="gray" d="M257.984,-8C257.984,-8 495.984,-8 495.984,-8 501.984,-8 507.984,-14 507.984,-20 507.984,-20 507.984,-230 507.984,-230 507.984,-236 501.984,-242 495.984,-242 495.984,-242 257.984,-242 257.984,-242 251.984,-242 245.984,-236 245.984,-230 245.984,-230 245.984,-20 245.984,-20 245.984,-14 251.984,-8 257.984,-8"/>
<text text-anchor="middle" x="376.984" y="-229.2" font-family="Times New Roman,serif" font-size="11.00" fill="gray">Global</text>
</g>
<!-- \\block_ejsapp_file_browser -->
<g id="node1" class="node"><title>\\block_ejsapp_file_browser</title>
<polygon fill="none" stroke="black" points="469.484,-214 284.484,-214 284.484,-178 469.484,-178 469.484,-214"/>
<text text-anchor="middle" x="376.984" y="-193.2" font-family="Courier,monospace" font-size="11.00">block_ejsapp_file_browser</text>
</g>
<!-- \\block_base -->
<g id="node5" class="node"><title>\\block_base</title>
<ellipse fill="none" stroke="black" cx="90.9919" cy="-196" rx="55.4913" ry="18"/>
<text text-anchor="middle" x="90.9919" y="-192.3" font-family="Times New Roman,serif" font-size="14.00" fill="gray">\block_base</text>
</g>
<!-- \\block_ejsapp_file_browser&#45;&gt;\\block_base -->
<g id="edge1" class="edge"><title>\\block_ejsapp_file_browser&#45;&gt;\\block_base</title>
<path fill="none" stroke="black" d="M284.172,-196C242.548,-196 194.321,-196 156.592,-196"/>
<polygon fill="none" stroke="black" points="156.243,-192.5 146.243,-196 156.243,-199.5 156.243,-192.5"/>
</g>
<!-- \\block_ejsapp_file_browser_form -->
<g id="node2" class="node"><title>\\block_ejsapp_file_browser_form</title>
<polygon fill="none" stroke="black" points="486.484,-160 267.484,-160 267.484,-124 486.484,-124 486.484,-160"/>
<text text-anchor="middle" x="376.984" y="-139.2" font-family="Courier,monospace" font-size="11.00">block_ejsapp_file_browser_form</text>
</g>
<!-- \\moodleform -->
<g id="node6" class="node"><title>\\moodleform</title>
<ellipse fill="none" stroke="black" cx="90.9919" cy="-142" rx="57.6901" ry="18"/>
<text text-anchor="middle" x="90.9919" y="-138.3" font-family="Times New Roman,serif" font-size="14.00" fill="gray">\moodleform</text>
</g>
<!-- \\block_ejsapp_file_browser_form&#45;&gt;\\moodleform -->
<g id="edge2" class="edge"><title>\\block_ejsapp_file_browser_form&#45;&gt;\\moodleform</title>
<path fill="none" stroke="black" d="M267.403,-142C230.949,-142 191.38,-142 159.066,-142"/>
<polygon fill="none" stroke="black" points="158.842,-138.5 148.842,-142 158.842,-145.5 158.842,-138.5"/>
</g>
<!-- \\block_ejsapp_file_browser_renderer -->
<g id="node3" class="node"><title>\\block_ejsapp_file_browser_renderer</title>
<polygon fill="none" stroke="black" points="499.984,-106 253.984,-106 253.984,-70 499.984,-70 499.984,-106"/>
<text text-anchor="middle" x="376.984" y="-85.2" font-family="Courier,monospace" font-size="11.00">block_ejsapp_file_browser_renderer</text>
</g>
<!-- \\plugin_renderer_base -->
<g id="node7" class="node"><title>\\plugin_renderer_base</title>
<ellipse fill="none" stroke="black" cx="90.9919" cy="-88" rx="90.9839" ry="18"/>
<text text-anchor="middle" x="90.9919" y="-84.3" font-family="Times New Roman,serif" font-size="14.00" fill="gray">\plugin_renderer_base</text>
</g>
<!-- \\block_ejsapp_file_browser_renderer&#45;&gt;\\plugin_renderer_base -->
<g id="edge3" class="edge"><title>\\block_ejsapp_file_browser_renderer&#45;&gt;\\plugin_renderer_base</title>
<path fill="none" stroke="black" d="M253.898,-88C233.414,-88 212.367,-88 192.507,-88"/>
<polygon fill="none" stroke="black" points="192.239,-84.5001 182.239,-88 192.239,-91.5001 192.239,-84.5001"/>
</g>
<!-- \\ejsapp_file_browser_tree -->
<g id="node4" class="node"><title>\\ejsapp_file_browser_tree</title>
<polygon fill="none" stroke="black" points="466.484,-52 287.484,-52 287.484,-16 466.484,-16 466.484,-52"/>
<text text-anchor="middle" x="376.984" y="-31.2" font-family="Courier,monospace" font-size="11.00">ejsapp_file_browser_tree</text>
</g>
<!-- \\renderable -->
<g id="node8" class="node"><title>\\renderable</title>
<ellipse fill="none" stroke="black" cx="90.9919" cy="-34" rx="50.8918" ry="18"/>
<text text-anchor="middle" x="90.9919" y="-30.3" font-family="Times New Roman,serif" font-size="14.00" fill="gray">\renderable</text>
</g>
<!-- \\ejsapp_file_browser_tree&#45;&gt;\\renderable -->
<g id="edge4" class="edge"><title>\\ejsapp_file_browser_tree&#45;&gt;\\renderable</title>
<path fill="none" stroke="black" stroke-dasharray="1,5" d="M287.295,-34C243.373,-34 191.489,-34 152.242,-34"/>
<polygon fill="none" stroke="black" points="152.038,-30.5001 142.038,-34 152.038,-37.5001 152.038,-30.5001"/>
</g>
</g>
</svg>
