<?xml version="1.0" encoding="utf-8"?>
<!-- Generator: Adobe Illustrator 16.0.0, SVG Export Plug-In . SVG Version: 6.00 Build 0)  -->
<!DOCTYPE svg PUBLIC "-//W3C//DTD SVG 1.1//EN" "http://www.w3.org/Graphics/SVG/1.1/DTD/svg11.dtd">
<svg version="1.1" id="Capa_1" xmlns="http://www.w3.org/2000/svg" xmlns:xlink="http://www.w3.org/1999/xlink" x="0px" y="0px"
	 width="100px" height="100px" viewBox="0 0 100 100" enable-background="new 0 0 100 100" xml:space="preserve">
<rect y="0" fill="#00543D" stroke="#00543D" stroke-miterlimit="10" width="100" height="100"/>
<g>
	<g>
		<path fill="#FFFFFF" stroke="#FFFFFF" stroke-miterlimit="10" d="M22.44,88.669H3.85v-77h18.7c11.77,0,16.61,7.59,16.61,19.47
			c0,15.18-8.8,16.83-8.8,16.83s9.68,1.32,9.68,18.92C40.041,79.648,35.31,88.669,22.44,88.669z M19.36,21.128h-2.75v22.66h2.75
			c5.06,0,6.16-6.49,6.16-11.33C25.52,27.289,24.64,21.128,19.36,21.128z M19.58,53.359h-2.86v25.85h2.86
			c5.61,0,6.71-7.7,6.71-13.641C26.29,60.179,24.97,53.359,19.58,53.359z"/>
		<path fill="#FFFFFF" stroke="#FFFFFF" stroke-miterlimit="10" d="M50.27,89.789l-2-3.439c-3.04-5.121-3.52-6.641-3.52-12.641
			V29.708H56.43v44.96c0,6.4,0,6.721,2.16,12.641L50.27,89.789z"/>
		<path fill="#FFFFFF" stroke="#FFFFFF" stroke-miterlimit="10" d="M83.309,88.669L78.91,68.668l-3.762,1.761v18.24h-11.76V29.708
			h11.76v31.201c3.762-1.84,4.08-2.4,4.961-5.359l2.881-9.441l11.279,2.8l-5.52,13.76l7.6,26.001H83.309z"/>
	</g>
</g>
<g>
</g>
<g>
</g>
<g>
</g>
<g>
</g>
<g>
</g>
<g>
</g>
</svg>
